<svg viewBox="0 0 73 20" xmlns="http://www.w3.org/2000/svg" fill="none" color="white">
	<path d="M19.4602 9.79C19.4602 4.823 16.7862 1 9.97822 1H2.69922V18.574H9.97722C16.7852 18.574 19.4612 14.75 19.4612 9.789L19.4602 9.79ZM14.5082 9.79C14.5082 13.258 12.5782 14.547 9.90222 14.547H7.42622V5.027H9.90222C12.5782 5.027 14.5082 6.32 14.5082 9.789V9.79ZM20.5902 18.574H34.3522V14.574H25.3202V11.56H33.2502V7.762H25.3202V5.004H34.1252V1H20.5902V18.574ZM50.3632 7.105C50.3632 2.672 47.5632 1 43.2112 1H35.6842V18.574H40.4102V13.207H43.2102C47.5622 13.207 50.3632 11.535 50.3632 7.105ZM45.4652 7.105C45.4652 8.825 44.6652 9.535 42.7382 9.535H40.4102V4.672H42.7382C44.6642 4.672 45.4652 5.382 45.4652 7.105ZM50.8832 5.102H56.3592V18.574H61.0862V5.102H66.5662V1H50.8832V5.102ZM64.6022 16.113C64.6022 17.703 65.8752 18.993 67.4422 18.993C69.0162 18.993 70.3012 17.703 70.3012 16.113C70.3012 14.523 69.0162 13.223 67.4412 13.223C65.8752 13.223 64.6022 14.523 64.6022 16.113ZM65.1482 16.113C65.1482 14.801 66.1722 13.727 67.4412 13.727C68.7152 13.727 69.7502 14.801 69.7502 16.113C69.7502 17.426 68.7152 18.488 67.4412 18.488C66.1712 18.488 65.1482 17.426 65.1482 16.113ZM66.1092 17.539H67.0082V16.559H67.5202L68.0552 17.539H69.0272L68.3792 16.379C68.6762 16.254 68.9022 15.914 68.9022 15.531C68.9022 14.867 68.4772 14.547 67.7582 14.547H66.1092V17.539ZM67.9922 15.547C67.9922 15.785 67.8442 15.887 67.5592 15.887H67.0082V15.257H67.5582C67.8442 15.257 67.9922 15.332 67.9922 15.547Z" fill="currentColor">
	</path>
</svg>